<?xml version="1.0" standalone="no"?>
<!DOCTYPE svg PUBLIC "-//W3C//DTD SVG 20010904//EN"
 "http://www.w3.org/TR/2001/REC-SVG-20010904/DTD/svg10.dtd">
<svg version="1.0" xmlns="http://www.w3.org/2000/svg"
 width="1000.000000pt" height="1000.000000pt" viewBox="0 0 1000.000000 1000.000000"
 preserveAspectRatio="xMidYMid meet">
<metadata>
Created by potrace 1.11, written by Peter Selinger 2001-2013
</metadata>
<g transform="translate(0.000000,1000.000000) scale(0.100000,-0.100000)"
fill="#000000" stroke="none">
<path d="M4685 9430 c-38 -21 -97 -54 -130 -73 -33 -20 -98 -58 -145 -85 -47
-27 -101 -58 -120 -69 -137 -81 -241 -141 -345 -199 -66 -37 -127 -73 -135
-79 -8 -7 -51 -32 -95 -55 -44 -24 -104 -58 -133 -77 -29 -18 -54 -33 -57 -33
-2 0 -93 -52 -202 -116 -109 -64 -218 -127 -243 -141 -52 -30 -502 -290 -635
-368 -49 -29 -124 -72 -165 -95 -117 -67 -305 -176 -415 -241 -96 -56 -306
-177 -363 -209 -208 -118 -284 -168 -276 -182 5 -7 41 -9 113 -4 166 11 375
24 641 41 135 8 295 19 355 25 61 5 162 12 225 15 63 3 203 12 310 20 107 8
341 24 520 35 179 11 449 29 600 40 151 11 385 27 520 35 135 9 252 18 262 21
13 4 18 23 23 92 11 130 -5 1714 -17 1730 -14 16 -13 17 -93 -28z m-549 -725
c15 -24 14 -30 -21 -137 -20 -64 -49 -128 -64 -148 -22 -27 -29 -49 -33 -100
-4 -41 -19 -99 -42 -156 -20 -50 -36 -97 -36 -104 0 -22 -81 -114 -127 -144
-52 -34 -130 -44 -355 -45 -135 -1 -138 -1 -153 23 -12 17 -14 35 -9 63 9 53
107 239 159 303 24 29 46 65 49 81 7 37 26 46 132 59 117 14 255 40 276 51 18
10 58 90 58 117 0 12 -9 13 -47 9 -50 -6 -201 -30 -265 -42 -36 -7 -38 -6 -38
18 0 36 74 98 141 119 30 10 83 22 119 28 36 5 79 14 95 19 17 5 56 10 87 10
51 1 59 -2 74 -24z m-652 -98 c29 -21 14 -59 -90 -233 -53 -87 -138 -231 -190
-320 -51 -88 -104 -169 -116 -181 -25 -22 -87 -36 -107 -23 -19 11 -6 41 67
154 35 56 80 126 100 156 19 30 45 71 57 90 12 19 44 68 70 109 26 41 52 92
57 114 11 48 62 125 91 137 31 12 41 12 61 -3z"/>
<path d="M3715 8248 c-136 -20 -137 -21 -173 -67 -19 -25 -32 -53 -30 -65 3
-20 8 -21 108 -18 58 1 119 7 135 12 36 12 75 74 75 119 0 35 -5 36 -115 19z"/>
<path d="M4994 9433 c-9 -48 5 -1391 16 -1603 8 -134 12 -167 26 -177 19 -14
49 -17 354 -38 129 -9 350 -25 490 -35 140 -11 352 -27 470 -35 285 -20 717
-52 965 -71 195 -15 457 -33 760 -53 83 -6 226 -17 319 -26 172 -16 203 -13
177 19 -10 12 -120 79 -222 136 -24 13 -206 119 -250 145 -10 6 -53 30 -96 55
-43 25 -86 49 -95 55 -28 16 -221 129 -240 140 -16 9 -336 195 -415 242 -17
10 -116 68 -219 128 -103 61 -200 117 -216 125 -15 8 -177 103 -360 210 -418
244 -766 447 -883 515 -49 28 -146 85 -215 125 -353 206 -354 206 -366 143z
m1394 -921 c15 -16 34 -42 42 -58 8 -16 72 -129 143 -251 70 -122 127 -231
127 -243 0 -35 -86 -54 -121 -27 -8 7 -29 33 -47 58 -17 26 -38 49 -47 53 -15
5 -86 -7 -240 -41 -93 -21 -133 -20 -180 5 -58 29 -133 123 -157 195 -6 17
-35 81 -64 141 -30 60 -54 115 -54 122 0 17 26 30 75 38 49 8 101 -20 111 -59
4 -15 32 -74 64 -133 l57 -107 49 -3 c48 -3 221 25 237 39 9 7 -4 35 -77 168
-25 47 -46 91 -46 98 0 16 34 31 73 32 19 1 38 -9 55 -27z"/>
<path d="M4370 7405 c-107 -7 -258 -18 -335 -24 -77 -6 -207 -15 -290 -21 -82
-6 -206 -15 -275 -20 -133 -10 -461 -34 -700 -51 -180 -12 -345 -24 -610 -44
-113 -8 -302 -22 -420 -30 -194 -14 -284 -21 -585 -40 -49 -4 -100 -8 -112
-11 -41 -8 -36 -22 87 -279 34 -71 70 -150 80 -175 10 -25 51 -112 90 -195 90
-189 108 -227 163 -350 25 -55 70 -152 100 -215 30 -63 65 -137 77 -165 46
-104 130 -284 179 -387 28 -59 51 -110 51 -112 0 -4 32 -73 170 -371 15 -33
52 -114 83 -180 30 -66 68 -149 85 -185 44 -95 260 -566 322 -704 30 -65 60
-120 67 -123 20 -8 39 13 81 90 21 40 80 145 130 235 198 350 277 491 330 587
30 55 65 119 78 143 13 23 36 63 50 90 15 26 34 61 44 77 10 17 32 57 50 90
48 88 219 398 230 415 23 38 130 231 130 235 0 2 14 28 31 57 37 61 35 58 207
368 72 129 141 254 154 277 12 23 57 104 99 180 42 76 108 194 146 263 39 69
86 154 105 190 19 36 71 133 116 216 45 83 82 155 82 161 0 6 -7 14 -16 17
-19 7 -24 7 -274 -9z m-1825 -737 c22 -11 58 -30 80 -43 22 -13 47 -27 55 -31
51 -25 81 -59 96 -110 11 -38 12 -58 5 -71 -6 -10 -16 -29 -21 -43 -6 -14 -21
-43 -33 -65 -69 -120 -127 -236 -127 -253 0 -31 96 -88 130 -77 9 3 31 33 48
68 18 34 50 94 72 132 22 39 43 77 47 85 28 65 86 150 102 150 23 0 102 -44
125 -69 16 -18 16 -20 -4 -52 -11 -19 -27 -47 -35 -64 -9 -16 -33 -61 -55
-100 -22 -38 -46 -83 -54 -100 -8 -16 -33 -61 -55 -100 -22 -38 -54 -98 -71
-131 -18 -36 -39 -64 -50 -67 -11 -3 -46 9 -82 28 -35 19 -76 41 -93 49 -156
80 -209 123 -225 180 -18 65 -8 97 75 241 13 22 37 68 55 102 17 35 36 65 41
68 18 12 8 42 -21 63 -50 38 -90 34 -113 -10 -9 -18 -39 -73 -67 -123 -28 -49
-58 -103 -66 -120 -42 -86 -84 -150 -99 -153 -20 -4 -118 42 -136 64 -12 15
-4 36 71 169 21 39 46 84 54 100 8 17 31 57 50 90 20 33 41 71 48 85 65 129
140 161 253 108z"/>
<path d="M5140 7404 c0 -17 193 -377 216 -405 8 -8 14 -18 14 -22 0 -5 80
-154 184 -342 12 -22 42 -76 66 -120 24 -44 67 -121 97 -172 29 -50 53 -93 53
-96 0 -3 49 -92 108 -198 60 -107 135 -243 168 -302 32 -59 69 -127 82 -150
13 -23 44 -80 69 -127 26 -47 56 -101 68 -120 12 -19 43 -75 70 -125 47 -89
111 -206 302 -550 55 -99 127 -229 159 -288 33 -59 68 -125 80 -145 11 -20 49
-89 84 -152 95 -172 104 -189 144 -260 20 -36 42 -75 48 -87 25 -50 48 -25
113 117 26 58 67 146 90 195 170 361 215 457 238 505 14 30 46 100 72 155 41
87 119 253 230 490 18 39 74 157 124 263 50 107 91 195 91 197 0 2 30 66 66
142 36 76 93 197 126 268 62 135 90 194 203 430 37 77 87 185 112 240 25 55
74 160 109 233 35 74 64 142 64 153 0 28 -25 36 -140 43 -288 19 -402 27 -720
51 -190 14 -410 30 -490 35 -80 5 -170 12 -200 14 -30 3 -127 10 -215 16 -88
6 -245 17 -350 25 -104 8 -260 19 -345 25 -85 6 -209 15 -275 20 -66 5 -223
17 -350 25 -126 9 -285 20 -353 25 -180 14 -212 13 -212 -6z m2098 -642 c22
-14 52 -85 52 -122 0 -67 -44 -126 -120 -163 -8 -4 -46 -25 -85 -47 -38 -21
-95 -52 -125 -68 -30 -17 -75 -41 -100 -55 -25 -14 -72 -40 -105 -57 -33 -17
-80 -42 -105 -56 -24 -13 -49 -23 -55 -20 -5 2 -19 21 -30 42 -11 22 -28 51
-39 66 -22 31 -16 58 13 58 11 0 23 5 26 10 4 6 21 17 38 25 18 8 64 33 102
54 39 22 97 54 130 71 33 17 78 42 100 55 22 12 64 35 93 50 38 21 52 34 52
50 0 31 18 51 75 85 54 31 63 34 83 22z m222 -399 c14 -27 31 -53 39 -59 22
-17 6 -60 -26 -73 -35 -13 -158 -80 -195 -105 -33 -22 -30 -43 13 -121 16 -27
35 -64 43 -81 8 -17 19 -35 25 -38 6 -4 11 -15 11 -25 0 -10 11 -28 25 -41 24
-23 25 -23 52 -4 37 24 141 81 176 95 15 6 27 15 27 20 0 16 36 10 52 -8 9
-10 19 -28 22 -40 4 -11 13 -27 21 -33 8 -7 15 -27 15 -44 0 -28 -6 -34 -58
-59 -31 -15 -88 -45 -127 -67 -38 -22 -83 -46 -100 -54 -16 -9 -61 -33 -100
-55 -38 -22 -97 -54 -130 -72 -69 -36 -100 -53 -169 -92 -27 -15 -49 -26 -50
-25 -1 2 -11 17 -24 35 -12 18 -22 36 -22 41 0 5 -9 21 -21 36 -11 15 -19 32
-16 39 3 7 29 25 58 41 30 16 72 39 94 51 22 13 59 33 82 45 72 37 73 34 -20
200 -14 25 -38 70 -53 100 -15 30 -33 62 -40 70 -18 24 -24 75 -12 116 13 47
57 89 140 132 92 49 170 92 193 108 33 23 49 16 75 -33z"/>
<path d="M4877 7353 c-3 -5 -24 -44 -47 -88 -24 -44 -49 -87 -56 -96 -8 -8
-14 -18 -14 -21 0 -4 -17 -37 -38 -75 -53 -93 -167 -297 -306 -548 -64 -115
-121 -217 -126 -225 -12 -20 -94 -169 -138 -250 -19 -36 -38 -69 -42 -75 -8
-11 -27 -43 -113 -200 -30 -55 -86 -156 -124 -225 -39 -69 -84 -150 -100 -180
-16 -30 -97 -176 -180 -325 -83 -148 -170 -306 -193 -350 -24 -44 -46 -84 -50
-90 -5 -5 -33 -55 -63 -110 -30 -55 -86 -156 -124 -225 -39 -69 -86 -154 -105
-190 -65 -121 -281 -505 -294 -525 -8 -11 -14 -29 -14 -41 l0 -22 598 -7 c413
-5 3615 -1 3680 5 12 1 -64 156 -118 240 -5 8 -45 80 -88 160 -43 80 -90 165
-104 190 -14 25 -41 74 -60 110 -49 91 -127 232 -138 250 -5 8 -46 83 -91 165
-45 83 -91 168 -103 190 -13 22 -60 109 -107 193 -46 84 -91 165 -99 180 -9
15 -37 68 -64 117 -27 50 -59 108 -71 131 -37 67 -42 77 -64 122 -12 23 -21
49 -21 57 0 21 -59 128 -137 246 -58 86 -201 334 -226 389 -4 8 -11 22 -17 30
-5 8 -45 80 -88 160 -132 242 -240 438 -282 510 -22 38 -40 71 -40 73 0 7
-180 330 -192 345 -12 13 -34 16 -41 5z m-230 -2247 c18 -11 42 -34 55 -50 22
-29 23 -40 23 -186 0 -138 -2 -158 -19 -181 -48 -63 -53 -64 -284 -69 -174 -4
-214 -8 -222 -20 -12 -18 -13 -120 -2 -137 6 -9 75 -13 267 -15 l260 -3 0 -85
0 -85 -355 0 -355 0 -3 198 c-2 185 -1 202 18 241 13 25 36 50 60 64 37 21 50
22 234 22 164 0 197 3 210 16 16 16 21 61 10 101 -6 23 -7 23 -268 25 l-261 3
-3 84 c-2 61 1 87 10 93 7 5 144 7 303 6 266 -3 293 -5 322 -22z m1060 1 c11
-9 24 -17 30 -17 6 0 22 -17 35 -37 23 -37 23 -43 26 -341 3 -294 2 -305 -19
-348 -11 -25 -37 -56 -57 -69 l-37 -25 -313 0 c-303 0 -314 1 -351 22 -21 12
-47 38 -59 59 -20 35 -22 51 -22 223 0 101 3 191 6 200 9 23 159 23 168 0 3
-9 6 -78 6 -154 0 -113 3 -142 16 -154 13 -14 48 -16 232 -16 119 0 224 5 232
10 12 8 16 46 18 218 2 125 -1 219 -7 235 l-10 27 -328 2 -328 3 -3 27 c-4 38
40 109 80 130 47 25 71 26 385 24 252 -1 283 -3 300 -19z"/>
<path d="M8720 6473 c-51 -103 -128 -264 -172 -358 -44 -93 -93 -197 -108
-230 -132 -281 -200 -428 -200 -432 0 -3 -22 -51 -49 -107 -59 -123 -171 -365
-171 -371 0 -2 -27 -61 -61 -132 -34 -70 -79 -168 -100 -216 -22 -49 -55 -123
-75 -165 -20 -42 -68 -147 -106 -232 -149 -330 -239 -526 -248 -542 -31 -56
-90 -216 -86 -233 3 -13 24 -29 53 -42 66 -29 275 -124 353 -161 36 -16 108
-49 160 -72 52 -23 124 -56 160 -72 36 -17 130 -59 210 -95 80 -36 168 -75
195 -88 185 -86 304 -135 326 -135 11 0 21 9 24 23 3 12 6 881 7 1931 2 1446
0 1910 -9 1913 -6 2 -50 -75 -103 -184z m-408 -1679 c23 -20 52 -46 64 -58 11
-11 44 -43 72 -69 28 -27 54 -57 57 -66 3 -10 -10 -47 -30 -85 -19 -37 -35
-72 -35 -79 0 -6 -9 -31 -21 -56 -42 -92 -49 -107 -73 -171 -48 -125 -74 -160
-121 -160 -27 0 -159 140 -191 201 -29 59 -31 128 -4 184 11 22 19 47 20 56 0
8 4 19 9 25 5 5 21 41 35 79 15 39 33 84 41 100 7 17 16 40 20 52 10 36 60 83
88 83 14 0 44 -16 69 -36z m343 -417 c0 -68 -5 -103 -17 -128 -9 -19 -35 -79
-57 -134 -94 -237 -101 -245 -157 -177 -52 63 -51 56 -8 157 7 17 40 95 74
175 33 80 67 158 75 173 8 16 15 34 15 41 0 7 5 17 12 24 10 10 18 7 38 -13
23 -24 25 -32 25 -118z m-695 -304 c28 -33 31 -43 26 -81 -7 -56 -22 -82 -47
-82 -30 0 -68 49 -69 88 0 31 37 112 52 112 3 0 21 -17 38 -37z"/>
<path d="M8233 4603 c-3 -10 -14 -37 -24 -60 -11 -23 -19 -45 -19 -48 0 -3 -9
-27 -21 -52 -36 -78 -35 -104 1 -145 18 -20 38 -34 45 -32 7 3 20 24 30 47 9
23 26 60 36 83 10 23 19 48 19 56 0 9 7 21 15 28 27 22 19 76 -17 109 -37 35
-56 39 -65 14z"/>
<path d="M983 6618 c-11 -17 -16 -3241 -6 -3563 7 -232 9 -250 26 -253 18 -4
61 13 217 86 77 36 271 123 535 242 83 37 175 78 205 93 30 14 116 52 190 85
273 121 310 141 310 161 0 22 -46 128 -138 321 -32 69 -69 148 -82 175 -48
107 -130 284 -173 375 -25 52 -67 145 -95 205 -52 114 -120 260 -177 380 -18
39 -58 124 -88 190 -30 66 -75 163 -100 215 -24 52 -67 145 -95 205 -27 61
-70 153 -95 205 -58 125 -93 199 -160 345 -126 275 -255 545 -261 545 -3 0 -8
-6 -13 -12z m605 -1875 c10 -16 61 -101 112 -191 80 -140 91 -165 79 -177 -8
-8 -52 -24 -99 -35 -228 -56 -257 -60 -314 -36 -29 12 -42 29 -81 111 -26 53
-53 99 -61 102 -8 3 -25 2 -39 -1 -36 -9 -32 -37 20 -149 25 -53 45 -104 45
-112 0 -19 -44 -37 -79 -33 -25 3 -36 17 -65 88 -8 19 -26 61 -40 94 -33 74
-34 125 -3 153 54 51 213 91 254 65 6 -4 35 -52 65 -107 51 -96 55 -100 89
-103 49 -4 89 13 89 38 0 12 -27 71 -60 132 -34 61 -60 118 -58 127 3 17 82
61 110 61 9 0 25 -12 36 -27z m296 -522 c20 -21 27 -37 24 -57 -3 -28 -7 -30
-73 -40 -179 -30 -325 -54 -383 -64 -35 -6 -76 -19 -90 -30 -15 -10 -43 -22
-64 -25 -59 -11 -97 42 -68 94 12 23 71 47 147 60 32 6 112 22 178 36 302 65
292 64 329 26z"/>
<path d="M4093 3271 c-699 -4 -1275 -10 -1279 -14 -11 -11 9 -44 91 -147 42
-52 95 -120 117 -150 23 -30 64 -83 92 -117 28 -34 74 -93 103 -130 29 -37 80
-103 115 -147 35 -43 70 -88 78 -101 15 -22 53 -71 172 -219 35 -43 76 -97 92
-119 16 -23 52 -70 80 -104 28 -35 75 -93 104 -130 28 -38 80 -103 115 -146
34 -44 69 -89 77 -100 8 -12 35 -47 60 -78 25 -32 79 -100 120 -153 41 -53
107 -138 147 -189 40 -50 95 -121 123 -157 28 -36 85 -108 128 -162 42 -53
113 -142 157 -198 95 -122 131 -155 151 -140 12 11 361 458 394 506 15 21 87
115 252 326 46 58 112 145 148 193 36 47 94 123 130 169 36 46 90 116 120 156
30 39 83 109 118 153 34 45 66 87 70 92 4 6 25 32 47 59 22 27 54 68 70 92 28
40 51 70 209 274 210 272 454 595 471 625 13 22 16 38 10 44 -14 14 -1371 20
-2882 12z m1091 -740 c17 -11 41 -33 54 -50 20 -28 22 -41 22 -172 0 -127 -2
-144 -21 -171 l-21 -29 21 -23 c19 -20 21 -34 21 -156 0 -122 -2 -137 -22
-167 -13 -18 -28 -33 -34 -33 -6 0 -17 -7 -24 -15 -10 -13 -53 -15 -268 -15
-239 0 -257 1 -288 21 -63 38 -74 71 -74 213 0 114 2 128 20 143 25 22 25 34
-1 67 -42 54 -34 56 239 56 203 0 252 3 261 14 7 9 11 41 9 83 l-3 68 -260 5
-260 5 -3 33 c-4 40 27 93 71 121 30 19 47 21 281 21 229 0 251 -2 280 -19z"/>
<path d="M4748 2009 c-23 -13 -25 -101 -4 -118 9 -8 64 -11 172 -9 l159 3 3
59 c2 41 -1 62 -10 67 -19 12 -300 10 -320 -2z"/>
<path d="M2490 3226 c-36 -14 -208 -92 -375 -171 -49 -23 -166 -77 -260 -120
-93 -43 -206 -95 -250 -116 -44 -20 -136 -62 -205 -94 -69 -31 -132 -63 -140
-71 -20 -20 -9 -29 145 -117 72 -41 189 -108 260 -149 72 -41 175 -100 230
-132 55 -31 107 -61 115 -66 18 -11 114 -67 155 -90 17 -9 65 -38 108 -64 43
-25 81 -46 83 -46 2 0 37 -20 77 -44 39 -24 110 -65 157 -91 47 -26 108 -62
135 -80 28 -17 82 -49 120 -70 39 -20 95 -52 125 -70 30 -18 186 -108 345
-199 160 -92 297 -171 305 -176 18 -11 112 -65 158 -92 17 -10 47 -27 65 -37
17 -10 68 -40 112 -65 44 -25 96 -55 115 -67 189 -113 256 -147 267 -135 8 7
-39 76 -152 221 -47 61 -105 137 -130 170 -25 33 -92 120 -148 194 -56 73
-109 143 -117 155 -15 21 -155 205 -274 360 -34 43 -68 88 -76 100 -8 11 -58
77 -110 144 -52 68 -102 134 -110 145 -8 12 -51 69 -95 127 -43 58 -136 179
-205 270 -256 337 -378 490 -388 489 -4 0 -23 -6 -42 -13z m242 -528 c14 -18
89 -107 168 -198 143 -166 169 -205 151 -223 -12 -12 -148 -33 -266 -41 -105
-7 -130 2 -159 55 -30 55 -20 65 81 79 100 14 123 23 123 48 0 10 -45 73 -100
142 -55 68 -100 129 -100 135 0 19 23 35 51 35 18 0 34 -10 51 -32z m-420
-120 c16 -13 214 -306 224 -333 9 -21 -19 -29 -60 -15 -39 13 -97 72 -141 146
-16 27 -44 73 -62 102 -34 55 -42 97 -20 105 22 9 43 7 59 -5z m976 -545 c34
-37 61 -75 60 -83 -4 -18 -76 -19 -381 -6 -183 8 -200 8 -232 -10 -32 -17 -38
-17 -77 -4 -48 17 -88 67 -88 110 0 54 7 55 410 58 l245 2 63 -67z"/>
<path d="M7225 3197 c-36 -38 -110 -133 -292 -375 -27 -35 -68 -90 -93 -122
-65 -84 -229 -303 -270 -359 -19 -27 -69 -92 -110 -145 -41 -54 -91 -119 -110
-145 -19 -27 -89 -120 -156 -207 -66 -88 -197 -260 -290 -384 -94 -124 -226
-298 -295 -388 -146 -192 -155 -206 -134 -210 15 -4 76 27 240 123 84 49 483
276 585 333 25 14 77 43 115 65 39 22 167 95 285 162 118 66 258 146 310 177
52 30 126 72 165 92 38 20 76 42 85 49 8 6 26 18 39 25 13 8 38 22 55 31 28
16 117 68 156 91 33 19 138 79 180 102 50 28 235 135 375 218 127 75 293 173
313 185 9 6 49 29 89 53 75 44 97 75 69 95 -9 7 -51 28 -94 47 -167 74 -210
93 -292 132 -47 22 -124 58 -172 79 -48 21 -116 52 -150 68 -35 16 -132 61
-215 100 -84 39 -155 71 -158 71 -2 0 -43 18 -90 40 -47 22 -88 40 -92 40 -3
0 -25 -19 -48 -43z m463 -668 c2 -10 -10 -22 -32 -33 -29 -13 -74 -16 -293
-16 -275 0 -306 5 -264 40 22 19 37 20 237 19 118 -1 218 1 221 5 4 4 34 6 67
4 47 -2 62 -7 64 -19z m-372 -123 c19 -14 19 -15 -6 -62 -40 -77 -93 -167
-119 -202 -27 -39 -106 -77 -201 -98 -85 -19 -330 -30 -355 -17 -16 9 -14 15
25 57 24 26 52 51 61 57 10 5 56 11 104 14 47 3 95 9 106 13 28 11 130 133
127 152 -2 8 -10 16 -18 17 -97 12 -109 24 -70 63 18 18 33 20 173 20 117 0
158 -3 173 -14z m297 -1 c59 -10 73 -39 58 -128 -20 -116 -25 -131 -51 -144
-35 -18 -181 -17 -205 1 -18 13 -17 17 22 117 23 57 44 113 47 125 7 25 42 44
71 39 11 -2 37 -7 58 -10z"/>
</g>
</svg>
